<?xml version="1.0" encoding="UTF-8"?>
<svg id="Layer_2" data-name="Layer 2" xmlns="http://www.w3.org/2000/svg" viewBox="0 0 422.45 343.66">
  <defs>
    <style>
      .cls-1, .cls-2 {
        fill: none;
      }

      .cls-3 {
        fill: #fe9932;
      }

      .cls-4, .cls-5 {
        fill: #fff;
      }

      .cls-6 {
        fill: #fefefe;
      }

      .cls-7 {
        fill: #fe7d28;
      }

      .cls-8 {
        fill: #aab855;
      }

      .cls-9 {
        fill: #becd56;
      }

      .cls-10 {
        fill: #19a79d;
      }

      .cls-11 {
        fill: #262223;
      }

      .cls-2 {
        stroke: #b7a895;
        stroke-miterlimit: 10;
        stroke-width: 2px;
      }

      .cls-5 {
        font-family: IBMPlexSans-Bold, 'IBM Plex Sans';
        font-size: 36.96px;
      }
    </style>
  </defs>
  <g id="Layer_1-2" data-name="Layer 1">
    <path class="cls-10" d="M136.69,249.67c1.88-5.45,5.49-8.49,11.23-10.15,31.34-9.1,63.06-11.53,95.33-6.53,10.82,1.68,21.35,4.51,31.87,7.53,5.85,1.68,9.76,5,12.35,10.25-.45-.04-.96,.05-1.33-.14-3.11-1.55-4-.32-3.82,2.78,.18,3.14,.09,6.3,.12,9.45-.49,1.13-.47,2.26,.08,3.36-.07,1.48-.21,2.95-.21,4.43,0,23.14-.02,46.29,.1,69.43,.02,3.01-.58,3.86-3.85,3.44-21.73-2.79-43.22-6.82-64.49-12.07-1.84-.45-3.59-.32-5.39,.11-21.06,5.09-42.23,9.56-63.8,11.99-3.05,.34-4.06-.21-4.02-3.39,.13-13.11,.07-26.22,.04-39.33-.03-11.74-.12-23.48-.19-35.21,.48-1.07,.67-2.16,.11-3.27,.01-2.94,.04-5.88,.04-8.83,0-4.16-.04-4.2-4.17-3.88Z"/>
    <path class="cls-2" d="M273.66,251.27c0,18.02-.02,60.06,.08,78.07,.01,2.34-.51,3.01-3.38,2.68-19.07-2.17-37.93-5.31-56.6-9.4-1.61-.35-3.15-.25-4.73,.09-18.48,3.96-37.07,7.44-56,9.34-2.67,.27-3.56-.16-3.53-2.64,.12-10.2,.06-20.41,.03-30.62-.03-9.14-.11-38.39-.16-47.53"/>
    <text class="cls-5" transform="translate(166 312.4)"><tspan x="0" y="0">2024</tspan></text>
    <g>
      <rect id="_Transparent_Rectangle_" data-name=" Transparent Rectangle " class="cls-1" x="166.35" y="196.8" width="100.97" height="100.97"/>
      <g>
        <path class="cls-6" d="M243.44,276.41c-1.48,0-2.95-.02-4.43-.05-5.58-.11-11.23-.42-16.7-.71-2.32-.12-4.64-.25-6.96-.36-7.75-.38-15.49-.75-23.23-1.1-1.62-.07-3.25-.13-4.88-.2-6.44-.25-13.11-.52-19.65-1.1-10.95-.94-21.36-3.55-30.92-7.76-7.86-3.5-16.89-7.77-24.69-14.22-9.76-8.13-18.1-17.24-24.79-27.11-5.53-8.16-9-17.17-11.65-24.92-3.13-9.07-4.85-19.04-5.25-30.48-.29-8.7,.59-17.55,2.62-26.3l.19-.78c1.07-4.55,2.18-9.25,4.15-13.69,5.98-13.73,11.89-24.8,21.28-34.16,5.11-5.07,9.76-9.6,15.08-13.74,1.63-1.25,3.3-2.35,4.91-3.41,.7-.46,1.41-.93,2.1-1.4,3.8-2.49,7.84-4.67,12.4-6.71,3.68-1.65,7.75-3.2,12.78-4.87,8.19-2.74,16.65-4.31,25.15-4.67,1.31-.06,2.62-.17,4-.29,.85-.07,1.71-.15,2.57-.21,.46-.03,.91-.04,1.36-.04,1.54,0,2.99,.16,4.39,.32,1.14,.13,2.22,.25,3.24,.27,2.17-3.28,5.09-5.94,9.06-8.25,4.19-2.46,8.46-3.37,12.62-4.07,.11-.89,.22-1.77,.33-2.66,.56-4.58,1.14-9.32,2.29-13.96,.29-1.15,.56-2.3,.83-3.46,1.4-5.94,2.84-12.09,6.27-17.8,1.77-2.91,4.41-4.5,7.44-4.5,.79,0,1.61,.11,2.42,.33,3.85,1.02,7.47,2.21,10.73,3.52,2.96,1.21,4.74,3,5.3,5.33,.57,2.36-.22,4.83-2.37,7.36-2.94,3.47-4.87,7.84-6.73,12.07-1.04,2.35-2.18,4.66-3.29,6.89-1.39,2.8-2.73,5.49-3.85,8.23,4.98,1.7,9.69,4.48,14.28,8.42,1.75,1.52,2.75,3.44,3.62,5.16,6.12,.03,12.54,.71,19.09,2.02,10.41,2.07,20.93,5.93,32.19,11.81,7.72,4,14.35,9.88,19.67,14.6,7.53,6.64,13.91,14.42,18.95,23.13,.52,.89,1.08,1.76,1.68,2.69,1.14,1.77,2.32,3.59,3.29,5.71,1.92,4.27,3.49,8.64,5.01,12.87,.34,.95,.68,1.91,1.03,2.86,1.96,5.38,2.89,10.81,3.79,16.06l.08,.47c1.33,7.71,1.64,15.85,.92,24.2-1.01,11.28-3.18,20.75-6.63,28.96-4.63,10.93-9.09,20.67-16.83,29.12-.99,1.08-1.97,2.16-2.94,3.23-3.81,4.22-7.75,8.58-12.33,12.36-7.67,6.37-15.28,11.31-23.27,15.09-1.63,.78-3.3,1.34-4.9,1.88-.45,.15-.9,.3-1.35,.46-.9,.63-1.82,1.04-2.78,1.25-.05,.02-.1,.04-.14,.06-.75,.42-1.48,.53-2.04,.53-.15,0-.33,0-.54-.04-.04,0-.08,.02-.12,.03-9.48,3.96-19.91,5.74-33.81,5.74Z"/>
        <path class="cls-10" d="M225.31,8c.44,0,.9,.06,1.38,.19,3.46,.91,6.93,2.02,10.27,3.37,3.53,1.45,3.84,3.5,1.39,6.39-3.28,3.87-5.32,8.47-7.34,13.04-2.87,6.49-6.58,12.63-8.72,19.43,6.46,1.35,12,4.54,16.91,8.76,1.73,1.51,2.58,4.06,3.84,6.14,.63-.01,1.26-.02,1.89-.02,6.33,0,12.62,.71,18.81,1.94,10.93,2.17,21.23,6.27,31.12,11.43,7.06,3.65,13.01,8.85,18.87,14.05,7.18,6.33,13.29,13.76,18.14,22.14,1.57,2.71,3.47,5.17,4.79,8.06,2.27,5.04,4.03,10.24,5.92,15.43,1.89,5.2,2.77,10.52,3.68,15.84,1.32,7.65,1.54,15.5,.88,23.18-.85,9.51-2.65,18.99-6.33,27.75-4.19,9.89-8.57,19.75-16.1,27.97-4.82,5.23-9.39,10.68-14.87,15.21-6.9,5.73-14.3,10.71-22.43,14.55-2.05,.98-4.28,1.61-6.46,2.39-.66,.54-1.39,.95-2.27,.98-.08,.13-.2,.2-.35,.2-.03,0-.06,0-.09,0-.13,.14-.23,.24-.35,.24-.09,0-.18-.05-.28-.17-.63,.16-1.29,.22-1.89,.47-10.38,4.34-21.31,5.44-32.3,5.44-1.44,0-2.89-.02-4.33-.05-7.84-.16-15.69-.69-23.56-1.07-7.75-.38-15.5-.76-23.25-1.1-8.13-.35-16.28-.57-24.35-1.29-10.24-.88-20.28-3.31-29.67-7.43-8.35-3.72-16.66-7.78-23.75-13.64-9.2-7.65-17.32-16.38-24.03-26.27-4.98-7.34-8.32-15.62-11.18-23.97-3.28-9.48-4.69-19.4-5.04-29.32-.28-8.44,.6-16.98,2.52-25.26,1.1-4.66,2.17-9.42,4.09-13.76,5.2-11.94,10.99-23.53,20.44-32.95,4.72-4.69,9.45-9.32,14.71-13.42,2.17-1.67,4.54-3.12,6.8-4.66,3.75-2.46,7.69-4.54,11.78-6.36,4.06-1.83,8.22-3.34,12.41-4.72,7.81-2.61,15.84-4.13,24.06-4.47,2.24-.09,4.44-.35,6.68-.5,.36-.02,.72-.04,1.07-.04,2.64,0,5.26,.58,7.91,.58,.69,0,1.38-.04,2.07-.14,2.02-3.78,4.94-6.46,8.72-8.66,4.5-2.65,9.29-3.24,14.17-4.06,.91-6.36,1.39-12.88,2.93-19.12,1.7-6.83,2.9-13.92,6.65-20.16,1.04-1.7,2.4-2.56,4.01-2.56m0-8c-4.42,0-8.37,2.33-10.84,6.4-3.78,6.29-5.36,13.03-6.76,18.99-.27,1.14-.53,2.27-.81,3.4-1.19,4.8-1.78,9.57-2.35,14.19-3.55,.73-7.31,1.83-11.05,4.03-3.65,2.13-6.61,4.63-8.95,7.55-.29-.03-.58-.06-.88-.1-1.44-.16-3.07-.34-4.83-.34-.55,0-1.1,.02-1.62,.05-.9,.06-1.79,.14-2.67,.22-1.33,.12-2.59,.22-3.8,.28-8.87,.37-17.71,2.02-26.26,4.88-5.15,1.7-9.34,3.3-13.15,5.01-4.74,2.12-8.96,4.4-12.89,6.97l-.06,.04-.06,.04c-.68,.46-1.36,.91-2.05,1.37-1.67,1.1-3.4,2.24-5.12,3.56l-.02,.02-.02,.02c-5.49,4.27-10.24,8.89-15.43,14.06-10.43,10.39-16.8,23.17-22.14,35.43-2.1,4.75-3.25,9.63-4.37,14.36l-.18,.76c-2.12,9.13-3.03,18.33-2.73,27.37,.41,11.85,2.2,22.21,5.47,31.67,2.74,7.98,6.33,17.3,12.12,25.85,6.9,10.17,15.49,19.57,25.54,27.93,8.21,6.79,17.53,11.2,25.61,14.8,10,4.39,20.83,7.11,32.24,8.1,6.62,.59,13.33,.86,19.83,1.12,1.62,.06,3.25,.13,4.87,.2,7.76,.35,15.6,.73,23.2,1.1,2.32,.11,4.64,.24,6.95,.36,5.5,.3,11.18,.6,16.84,.72,1.57,.04,3.05,.05,4.49,.05,14.08,0,24.8-1.77,34.61-5.74,.84-.01,2.08-.17,3.4-.8,1.11-.3,2.18-.77,3.2-1.42,.29-.1,.57-.19,.86-.29,1.64-.55,3.5-1.18,5.35-2.07,8.27-3.91,16.16-9.02,24.1-15.62,4.78-3.96,8.82-8.43,12.73-12.75,.96-1.07,1.93-2.14,2.91-3.19,8.19-8.94,12.8-19,17.58-30.27,3.62-8.61,5.89-18.47,6.93-30.16,.75-8.72,.42-17.21-.97-25.26l-.08-.47c-.93-5.42-1.89-11.03-3.97-16.75-.34-.95-.68-1.89-1.02-2.84-1.55-4.3-3.14-8.75-5.12-13.15-1.11-2.42-2.42-4.46-3.58-6.26-.57-.89-1.11-1.73-1.59-2.54-5.25-9.07-11.9-17.19-19.77-24.12-5.47-4.86-12.31-10.92-20.48-15.15-11.57-6.04-22.45-10.03-33.24-12.18-5.96-1.19-11.82-1.87-17.46-2.05-.82-1.4-1.89-2.9-3.38-4.19l-.02-.02-.02-.02c-3.74-3.21-7.56-5.72-11.55-7.56,.67-1.41,1.37-2.83,2.1-4.29,1.13-2.27,2.29-4.61,3.37-7.05,1.83-4.15,3.56-8.07,6.13-11.11,3.75-4.43,3.81-8.36,3.2-10.89-.61-2.5-2.43-5.93-7.65-8.07-3.44-1.39-7.21-2.63-11.24-3.7-1.15-.31-2.31-.47-3.45-.47h0Z"/>
      </g>
      <g>
        <path class="cls-7" d="M323.19,183.7c.19,7.94-1.23,15.75-2.99,23.47-2.33,10.11-5.76,19.75-10.96,28.82-4.25,7.46-9.01,14.52-15.69,19.94-2.93,2.39-5.64,5.26-9.42,6.65-1.17,.44-3.02,.79-3.18,2.71-.66,.54-1.39,.95-2.27,.98-.13-.06-.22-.16-.35-.25-.03,.16-.06,.25-.09,.41-.22,.03-.44,.06-.63,.09-.63,.16-1.29,.22-1.89,.47-11.75,4.91-24.19,5.67-36.63,5.39-7.84-.16-15.69-.69-23.56-1.07-7.75-.38-15.5-.76-23.25-1.1-8.13-.35-16.28-.57-24.35-1.29-10.24-.88-20.28-3.31-29.67-7.43-8.35-3.72-16.66-7.78-23.75-13.64-9.2-7.65-17.32-16.38-24.03-26.27-4.98-7.34-8.32-15.62-11.18-23.97-3.28-9.48-4.69-19.4-5.04-29.32-.28-8.44,.6-16.98,2.52-25.26,1.1-4.66,2.17-9.42,4.09-13.76,5.2-11.94,10.99-23.53,20.44-32.95,4.72-4.69,9.45-9.32,14.71-13.42,2.17-1.67,4.54-3.12,6.8-4.66,4.79,.57,6.3,4.57,2.55,8.38-2.3,2.33-4.35,4.88-5.83,7.72-4.19,8.13-8.57,16.19-11.09,25.07-.57,1.95-.63,4.09-1.48,5.89-2.49,5.29-2.43,11.18-3.21,16.69-1.01,7.4-.63,15.06-.06,22.55,.47,6.46,1.73,12.95,3.5,19.21,2.36,8.35,5.73,16.32,9.8,24,.6,1.2,1.61,1.26,2.58,.98,1.04-.28,1.64-.88,1.51-2.24-.57-5.2-2.11-10.21-2.9-15.37-.82-5.48-1.39-11.09-1.48-16.47-.06-4.72-.5-9.64,.63-14.46,.88-3.78,.35-7.78,1.01-11.75,1.64-9.67,3.97-19.02,7.18-28.32,3.31-9.48,8-18.05,13.42-26.3,3.02-4.6,6.3-5.76,11.59-4.95,4.98,.76,7.15,4.16,8.69,8.28,.35,.98,.79,2.02,.44,3.24-2.52,8.95-5.42,17.76-6.96,27.02-1.13,6.8-1.83,13.67-2.11,20.47-.19,4.69-.28,9.51,.19,14.3,.6,6.11,1.29,12.19,2.36,18.24,1.07,5.98,2.61,11.81,4.63,17.51,.98,2.77,1.98,5.54,3.06,8.32,.54,1.32,1.67,2.2,3.06,1.8,1.07-.35,2.21-1.23,1.95-2.71-1.2-6.71-1.7-13.48-2.05-20.25-.13-2.68-.66-5.45-.38-8,.95-9.04,.09-18.21,1.89-27.25,.72-3.72,.85-7.56,1.57-11.34,.94-4.85,1.73-9.73,2.96-14.55,1.45-5.64,2.77-11.28,5.07-16.63,1.86-4.35,5.2-6.61,9.8-6.52,5.95,.13,11.02,4.22,11.18,10.11,.06,3.69-.41,7.59-1.13,11.21-1.29,6.46-.69,12.91-1.35,19.34-.6,6.05-.57,12.16-.13,18.27,.32,4.47,.09,9.01,.6,13.48,.6,5.83,1.26,11.65,2.05,17.48,1.1,8.06,2.93,15.91,5.2,23.65,1.17,4.06,2.65,8,4.63,11.84,2.77,5.39,5.8,10.46,10.61,14.3,4.54,3.65,12.54,3.34,16.95-.5,4.63-4,8.19-8.85,11.24-13.95,4.25-7.18,6.9-15.12,9.32-23.09,.95-3.12,1.32-6.49,1.67-9.67,.72-6.65,2.27-13.26,1.92-20.03-.03-.91-.06-1.86,.1-2.77,1.29-8.5,.63-17.07,.22-25.58-.35-8.32-2.05-16.57-3.12-24.82-.16-1.01-.88-1.95-.38-2.99,1.2-2.46,2.58-4.88,5.51-5.48,3.4-.69,6.02,.85,7.91,3.91,2.27,3.59,3.94,7.5,6.14,11.09,2.2,3.59,3.46,7.65,4.57,11.53,1.92,6.96,4.03,13.92,5.04,21.2,.88,6.55,1.35,13.13,1.89,19.72,.44,5.64-.63,11.28-.54,16.91,.03,1.89-.28,3.69-.63,5.51-1.07,5.76-1.48,11.69-3.31,17.32-1.2,3.78-1.7,7.75-3.28,11.43-2.55,6.05-5.04,12.09-7.56,18.14-.38,.91-.5,1.86,.38,2.52,.82,.63,1.76,1.1,2.87,.72,1.1-.35,1.95-1.07,2.68-1.92,5.58-6.36,10.3-13.39,14.21-20.76,4.16-7.87,7.21-16.28,9.64-24.95,1.98-7.09,3.02-14.36,4.35-21.54,.82-4.32,.44-8.85,.63-13.29,.22-5.51,.35-11.02-.35-16.57-.79-6.55-1.26-13.13-2.93-19.56-.41-1.64-.5-3.28-.57-4.95-.09-2.08,.28-3.84,2.49-4.35,2.14-.47,4.03,.16,5.17,2.2,1.35,2.49,2.99,4.79,4.13,7.46,3.5,8.13,6.14,16.44,8.03,25.13,1.83,8.38,2.27,16.76,2.43,25.17Z"/>
        <path class="cls-3" d="M347.13,177.4c-.85,9.51-2.65,18.99-6.33,27.75-4.19,9.89-8.57,19.75-16.1,27.97-4.82,5.23-9.39,10.68-14.87,15.21-6.9,5.73-14.3,10.71-22.43,14.55-2.05,.98-4.28,1.61-6.46,2.39,.16-1.92,2.02-2.27,3.18-2.71,3.78-1.39,6.49-4.25,9.42-6.65,6.68-5.42,11.43-12.47,15.69-19.94,5.2-9.07,8.63-18.71,10.96-28.82,1.76-7.72,3.18-15.53,2.99-23.47-.16-8.41-.6-16.79-2.43-25.17-1.89-8.69-4.54-17.01-8.03-25.13-1.13-2.68-2.77-4.98-4.13-7.46-1.13-2.05-3.02-2.68-5.17-2.2-2.2,.5-2.58,2.27-2.49,4.35,.06,1.67,.16,3.31,.57,4.95,1.67,6.43,2.14,13.01,2.93,19.56,.69,5.54,.57,11.06,.35,16.57-.19,4.44,.19,8.98-.63,13.29-1.32,7.18-2.36,14.46-4.35,21.54-2.43,8.66-5.48,17.07-9.64,24.95-3.91,7.37-8.63,14.39-14.21,20.76-.72,.85-1.57,1.57-2.68,1.92-1.1,.38-2.05-.09-2.87-.72-.88-.66-.76-1.61-.38-2.52,2.52-6.05,5.01-12.09,7.56-18.14,1.57-3.69,2.08-7.65,3.28-11.43,1.83-5.64,2.24-11.56,3.31-17.32,.35-1.83,.66-3.62,.63-5.51-.09-5.64,.98-11.28,.54-16.91-.54-6.58-1.01-13.17-1.89-19.72-1.01-7.28-3.12-14.24-5.04-21.2-1.1-3.87-2.36-7.94-4.57-11.53-2.21-3.59-3.87-7.5-6.14-11.09-1.89-3.06-4.5-4.6-7.91-3.91-2.93,.6-4.32,3.02-5.51,5.48-.5,1.04,.22,1.98,.38,2.99,1.07,8.25,2.77,16.5,3.12,24.82,.41,8.5,1.07,17.07-.22,25.58-.16,.91-.13,1.86-.1,2.77,.35,6.77-1.2,13.39-1.92,20.03-.35,3.18-.72,6.55-1.67,9.67-2.43,7.97-5.07,15.91-9.32,23.09-3.06,5.1-6.61,9.95-11.24,13.95-4.41,3.84-12.41,4.16-16.95,.5-4.82-3.84-7.84-8.91-10.61-14.3-1.98-3.84-3.46-7.78-4.63-11.84-2.27-7.75-4.09-15.59-5.2-23.65-.79-5.83-1.45-11.65-2.05-17.48-.5-4.47-.28-9.01-.6-13.48-.44-6.11-.47-12.22,.13-18.27,.66-6.43,.06-12.88,1.35-19.34,.72-3.62,1.2-7.53,1.13-11.21-.16-5.89-5.23-9.98-11.18-10.11-4.6-.09-7.94,2.17-9.8,6.52-2.3,5.35-3.62,10.99-5.07,16.63-1.23,4.82-2.02,9.7-2.96,14.55-.72,3.78-.85,7.62-1.57,11.34-1.8,9.04-.95,18.21-1.89,27.25-.28,2.55,.25,5.32,.38,8,.35,6.77,.85,13.54,2.05,20.25,.25,1.48-.88,2.36-1.95,2.71-1.39,.41-2.52-.47-3.06-1.8-1.07-2.77-2.08-5.54-3.06-8.32-2.02-5.7-3.56-11.53-4.63-17.51-1.07-6.05-1.76-12.13-2.36-18.24-.47-4.79-.38-9.61-.19-14.3,.28-6.8,.98-13.67,2.11-20.47,1.54-9.26,4.44-18.08,6.96-27.02,.35-1.23-.09-2.27-.44-3.24-1.54-4.13-3.72-7.53-8.69-8.28-5.29-.82-8.57,.35-11.59,4.95-5.42,8.25-10.11,16.82-13.42,26.3-3.21,9.29-5.54,18.65-7.18,28.32-.66,3.97-.13,7.97-1.01,11.75-1.13,4.82-.69,9.73-.63,14.46,.09,5.39,.66,10.99,1.48,16.47,.79,5.17,2.33,10.17,2.9,15.37,.13,1.35-.47,1.95-1.51,2.24-.98,.28-1.98,.22-2.58-.98-4.06-7.69-7.43-15.65-9.8-24-1.76-6.27-3.02-12.76-3.5-19.21-.57-7.5-.95-15.15,.06-22.55,.79-5.51,.72-11.4,3.21-16.69,.85-1.8,.91-3.94,1.48-5.89,2.52-8.88,6.9-16.95,11.09-25.07,1.48-2.83,3.53-5.39,5.83-7.72,3.75-3.81,2.24-7.81-2.55-8.38,3.75-2.46,7.69-4.54,11.78-6.36,4.06-1.83,8.22-3.34,12.41-4.72,7.81-2.61,15.84-4.13,24.06-4.47,2.24-.09,4.44-.35,6.68-.5,3.68-.25,7.34,.95,11.06,.41,4.79,.28,9.61,.54,14.39,.79,4.35,.25,8.69,.09,13.01,.5,8.91,.88,17.89,.69,26.8,1.48,6.96-.16,13.89,.57,20.69,1.92,10.93,2.17,21.23,6.27,31.12,11.43,7.06,3.65,13.01,8.85,18.87,14.05,7.18,6.33,13.29,13.76,18.14,22.14,1.57,2.71,3.47,5.17,4.79,8.06,2.27,5.04,4.03,10.24,5.92,15.43,1.89,5.2,2.77,10.52,3.68,15.84,1.32,7.65,1.54,15.5,.88,23.18Z"/>
        <path class="cls-9" d="M238.34,17.96c-3.28,3.87-5.32,8.47-7.34,13.04-2.87,6.49-6.58,12.63-8.72,19.43-3.56,.16-6.99-1.35-10.55-.6,.91-6.36,1.39-12.88,2.93-19.12,1.7-6.83,2.9-13.92,6.65-20.16,1.32-2.17,3.18-2.96,5.39-2.36,3.46,.91,6.93,2.02,10.27,3.37,3.53,1.45,3.84,3.5,1.39,6.39Z"/>
        <path class="cls-8" d="M243.03,65.33c-8.91-.79-17.89-.6-26.8-1.48-4.31-.41-8.66-.25-13.01-.5-4.79-.25-9.61-.5-14.39-.79,2.02-3.78,4.94-6.46,8.72-8.66,4.5-2.65,9.29-3.24,14.17-4.06,3.56-.76,6.99,.76,10.55,.6,6.46,1.35,12,4.54,16.91,8.76,1.73,1.51,2.58,4.06,3.84,6.14Z"/>
        <path class="cls-3" d="M278.69,266.25c-.09,.16-.25,.22-.44,.19v-.03c.03-.16,.06-.25,.09-.41,.13,.09,.22,.19,.35,.25Z"/>
        <path class="cls-3" d="M278.25,266.41v.03c-.22,.25-.38,.35-.63,.06,.19-.03,.41-.06,.63-.09Z"/>
      </g>
    </g>
    <g id="oXGPnv">
      <g>
        <path class="cls-10" d="M420.66,208.16c2.77-3.09,2.39-4.91-1.56-6.07-9.75-2.87-19.53-5.65-29.35-8.27-5.63-1.5-11.35-2.63-17.22-3.96,1.79-6.58,3.64-12.74,5.14-18.98,1.7-7.12,3.11-14.32,4.58-21.5,.68-3.34-.88-5.4-4-6.46-4.7-1.59-9.31-3.58-14.12-4.72-42.28-9.97-85.17-15.4-128.58-16.75-49.91-1.55-99.42,2.36-148.4,12.19-14.39,2.89-28.61,6.66-42.92,9.94-2.96,.68-3.92,2.23-3.22,5.12,.64,2.63,1.04,5.33,1.62,7.97,2.39,10.92,4.8,21.82,7.28,33.09-.97,.29-1.6,.5-2.24,.66-14.53,3.8-29.09,7.5-43.58,11.43-4.91,1.34-5.23,3.01-1.84,6.78,8.92,9.91,17.83,19.85,26.84,29.69,1.59,1.73,1.81,3.12,1.02,5.37-3.04,8.62-5.95,17.31-8.58,26.07-1.36,4.53-2.19,9.23-2.94,13.91-.59,3.71,.6,4.74,4.39,4.22,3.69-.5,7.38-1.11,11.04-1.8,22.1-4.19,44.14-8.66,65.48-15.95,4.46-1.53,4.36-2.04,3.28-6.64-3.15-13.39-6.01-26.85-9.07-40.68,35.73-6.66,71.4-10.33,107.41-10.73,42.75-.48,85.05,3.51,126.81,11.94,.14,.59,.28,.82,.24,1.01-2.82,12.91-5.55,25.85-8.53,38.72-.97,4.21-.98,4.88,2.97,6.22,25.02,8.5,50.84,13.58,76.82,17.92,3.81,.64,4.78-.4,4.49-4.17-.07-.9-.13-1.83-.38-2.68-3.63-12.34-7.2-24.71-11.04-36.98-.77-2.46-.72-4,1.09-5.97,9.12-9.89,18.08-19.93,27.07-29.94ZM26.34,280.35c.05-.22,.18-.92,.37-1.61,3.18-11.87,6.3-23.77,9.6-35.61,.77-2.78-.03-4.64-1.88-6.66-8.02-8.73-15.92-17.57-23.85-26.39-.74-.82-1.42-1.69-2.2-2.63,14.62-3.01,29.01-5.98,43.7-9.02,1.04,4.08,2.33,8.18,3.11,12.36,1.78,9.62,6.15,17.79,12.71,25,8.2,9.03,16.14,18.29,24.2,27.45,.73,.83,1.42,1.68,1.8,2.14-22.58,5-45.02,9.97-67.55,14.96Zm69.84-26.73c-8.5-8.01-17.53-16.5-27.21-25.61,7.06-1.51,13.26-2.84,19.92-4.27,2.56,10.53,5.09,20.87,7.29,29.89Zm209.53-42.69c-42.33-7.02-84.97-8.79-127.78-6.07-36.3,2.31-72.09,7.99-107.31,17.16-1.19,.31-2.39,.6-3.03,.75-6.81-24.78-13.59-49.44-20.45-74.4,109.41-25.82,218.77-25.03,327.33,1.26-5.52,24.37-11.15,49.19-16.72,73.78-16.45-7.87-34.44-9.57-52.04-12.49Zm20.32,43.88c2.38-9.8,4.77-19.6,7.19-29.55,6.31,1.26,12.24,2.44,18.78,3.74-8.63,8.85-17.04,17.47-25.44,26.08l-.53-.26Zm60.09-11.85c3.25,12.56,6.38,25.15,9.45,37.27-21.83-4.84-44.39-9.84-67.05-14.86,.77-.87,1.89-2.08,2.97-3.33,9.19-10.59,18.41-21.15,27.51-31.8,1.2-1.41,2.12-3.2,2.69-4.97,2.86-8.92,5.55-17.89,8.33-26.92,14.83,3.07,29.28,6.07,44.13,9.15-2.61,2.93-5.16,5.85-7.76,8.74-6.2,6.89-12.36,13.82-18.67,20.61-1.74,1.87-2.24,3.66-1.6,6.11Z"/>
        <path class="cls-4" d="M374.48,149.63c-5.52,24.37-11.15,49.2-16.72,73.78-16.45-7.87-34.44-9.57-52.04-12.49-42.33-7.01-84.97-8.79-127.78-6.07-36.3,2.31-72.09,8-107.31,17.16-1.19,.31-2.39,.59-3.04,.75-6.81-24.78-13.59-49.44-20.45-74.39,109.41-25.82,218.77-25.03,327.34,1.26Z"/>
        <path class="cls-4" d="M370.03,198.34c14.83,3.07,29.28,6.07,44.12,9.15-2.6,2.93-5.16,5.85-7.76,8.74-6.2,6.89-12.36,13.83-18.67,20.62-1.74,1.87-2.24,3.65-1.6,6.11,3.25,12.56,6.39,25.15,9.45,37.27-21.83-4.84-44.39-9.84-67.05-14.86,.77-.87,1.89-2.08,2.98-3.33,9.19-10.59,18.4-21.15,27.51-31.81,1.2-1.41,2.12-3.2,2.69-4.97,2.86-8.92,5.55-17.89,8.33-26.92Z"/>
        <path class="cls-4" d="M93.89,265.39c-22.58,5-45.03,9.97-67.55,14.96,.05-.22,.18-.92,.37-1.61,3.18-11.87,6.3-23.76,9.6-35.61,.77-2.78-.03-4.64-1.88-6.65-8.03-8.73-15.92-17.58-23.85-26.39-.74-.82-1.42-1.69-2.2-2.62,14.62-3.02,29.02-5.99,43.69-9.02,1.04,4.08,2.34,8.17,3.11,12.35,1.78,9.62,6.15,17.79,12.71,25.01,8.2,9.03,16.15,18.28,24.2,27.45,.72,.82,1.42,1.68,1.8,2.14Z"/>
        <path class="cls-4" d="M96.18,253.62c-8.5-8-17.53-16.5-27.21-25.61,7.06-1.51,13.26-2.85,19.92-4.28,2.57,10.53,5.09,20.87,7.29,29.89Z"/>
        <path class="cls-4" d="M326.03,254.8c2.39-9.8,4.77-19.6,7.19-29.55,6.31,1.26,12.24,2.44,18.78,3.74-8.63,8.85-17.04,17.46-25.44,26.07-.18-.09-.35-.18-.53-.26Z"/>
      </g>
    </g>
    <g>
      <path class="cls-11" d="M180.28,162.54c-.08-1.34-.16-2.68-.24-4.02,1.06-.06,2.13-.12,3.19-.18-.28-5.05-.55-10.1-.83-15.15-1.09,.06-2.18,.12-3.27,.19-.08-1.34-.16-2.68-.24-4.02,4.05-.24,8.1-.44,12.15-.6,.06,1.34,.11,2.68,.16,4.02-1.09,.04-2.18,.09-3.27,.14,.23,5.05,.47,10.1,.7,15.16,1.06-.05,2.13-.09,3.19-.14,.05,1.34,.11,2.68,.16,4.02-3.9,.16-7.81,.35-11.71,.58Z"/>
      <path class="cls-11" d="M195.69,138.59c4.14-.14,8.28-.23,12.42-.29,2.13-.03,3.79,.51,4.97,1.58,1.19,1.08,1.78,2.52,1.79,4.32,0,.89-.12,1.64-.37,2.26-.25,.62-.59,1.13-1,1.53-.42,.4-.91,.7-1.47,.89-.56,.19-1.17,.3-1.82,.33,0,.07,0,.13,0,.2,.6,0,1.23,.09,1.89,.28,.66,.2,1.27,.51,1.82,.94,.55,.43,1.02,.99,1.39,1.67,.37,.69,.56,1.53,.56,2.53,0,.91-.16,1.77-.47,2.58-.32,.81-.76,1.52-1.32,2.12-.56,.6-1.23,1.08-2.01,1.43-.77,.35-1.62,.53-2.54,.54-4.35,.05-8.71,.15-13.06,.29-.26-7.74-.52-15.47-.78-23.21Zm5.8,9.35c1.82-.04,3.63-.08,5.45-.11,.72-.01,1.28-.21,1.69-.59,.4-.38,.6-.91,.59-1.57,0-.33,0-.67-.01-1,0-.67-.22-1.18-.64-1.56-.42-.37-.99-.55-1.72-.54-1.83,.03-3.66,.06-5.49,.11,.04,1.75,.09,3.5,.13,5.26Zm.23,9.45c2.07-.05,4.15-.09,6.22-.12,.71-.01,1.27-.2,1.68-.57,.41-.37,.61-.89,.61-1.55,0-.38,0-.75-.01-1.13,0-.67-.22-1.18-.64-1.54-.42-.36-.99-.54-1.71-.53-2.09,.03-4.18,.07-6.27,.12,.04,1.77,.09,3.55,.13,5.32Z"/>
      <path class="cls-11" d="M238.97,146.63s-.07,0-.11,0c-.65,1.11-1.3,2.22-1.95,3.33-1.72,2.69-3.41,5.38-5.09,8.08-1.51-2.77-3.04-5.53-4.59-8.28-.62-1.23-1.24-2.46-1.86-3.69-.04,0-.07,0-.11,0-.07,5.16-.13,10.31-.2,15.47-1.68-.02-3.37-.04-5.05-.05,.04-7.74,.07-15.48,.11-23.22,1.97,.01,3.93,.03,5.9,.06,2.04,3.66,4.04,7.32,6.01,11,.02,0,.05,0,.07,0,2.12-3.58,4.27-7.14,6.45-10.69,1.98,.07,3.96,.15,5.93,.23-.33,7.73-.66,15.47-.99,23.2-1.68-.07-3.36-.14-5.05-.2,.18-5.08,.35-10.15,.53-15.23Z"/>
      <path class="cls-11" d="M88.73,196.39c-2.97,.65-5.93,1.33-8.89,2.03,.73,3.09,1.46,6.17,2.19,9.26-1.66,.39-3.32,.79-4.99,1.2-1.85-7.52-3.7-15.03-5.55-22.55,1.73-.42,3.45-.84,5.18-1.25,.71,2.99,1.42,5.98,2.13,8.97,2.98-.7,5.96-1.39,8.95-2.05-.66-3-1.33-6-1.99-9,1.73-.38,3.47-.76,5.21-1.12,1.6,7.57,3.21,15.15,4.81,22.72-1.67,.35-3.34,.71-5.01,1.08-.68-3.1-1.37-6.2-2.05-9.29Z"/>
      <path class="cls-11" d="M115.09,200.86c-.87-1.72-1.75-3.43-2.63-5.14-2.6,.47-5.19,.95-7.78,1.45-.21,1.92-.41,3.83-.6,5.75-1.7,.33-3.39,.67-5.08,1.02,.97-8.1,2.04-16.21,3.22-24.32,2.15-.41,4.31-.81,6.47-1.2,3.98,7.15,7.87,14.33,11.65,21.55-1.75,.29-3.49,.59-5.24,.9Zm-8.88-17.33c-.06,.01-.11,.02-.17,.03-.34,3.05-.66,6.1-.97,9.16,1.79-.34,3.59-.68,5.38-1-1.4-2.73-2.81-5.46-4.24-8.18Z"/>
      <path class="cls-11" d="M131.98,198.54c-1.57,.23-3.03,.2-4.37-.1-1.34-.3-2.53-.86-3.58-1.7-1.05-.83-1.93-1.94-2.66-3.31-.73-1.37-1.26-3.04-1.58-4.98-.32-1.93-.35-3.68-.1-5.26,.25-1.58,.76-2.96,1.51-4.12,.75-1.16,1.75-2.11,2.98-2.84,1.23-.73,2.67-1.21,4.3-1.45,2.24-.33,4.15-.15,5.72,.52,1.57,.67,2.92,1.88,4.03,3.64-1.4,.94-2.8,1.89-4.19,2.85-.45-.92-1.06-1.63-1.82-2.11-.76-.49-1.79-.64-3.1-.45-1.53,.22-2.69,.89-3.47,1.98-.78,1.09-1.02,2.55-.74,4.37,.19,1.23,.38,2.46,.57,3.68,.28,1.82,.95,3.13,2,3.95,1.05,.82,2.32,1.11,3.82,.89,1.25-.18,2.2-.66,2.86-1.44,.65-.78,1.1-1.66,1.33-2.65,1.5,.6,3,1.2,4.49,1.81-.64,1.87-1.6,3.38-2.88,4.53-1.28,1.15-2.99,1.88-5.14,2.19Z"/>
      <path class="cls-11" d="M151.2,185.47c-.9,1.33-1.78,2.65-2.67,3.98,.25,2.14,.5,4.27,.74,6.41-1.69,.2-3.38,.4-5.07,.61-.96-7.68-1.92-15.36-2.88-23.04,1.76-.22,3.51-.43,5.27-.63,.43,3.66,.85,7.31,1.28,10.97,.07,0,.14-.02,.2-.02,.95-1.62,1.91-3.23,2.88-4.84,1.56-2.37,3.13-4.73,4.73-7.09,1.99-.2,3.98-.39,5.98-.57-2.43,3.42-4.82,6.85-7.17,10.29,3.39,4.23,6.72,8.49,9.98,12.77-1.99,.18-3.99,.37-5.98,.57-2.4-3.15-4.83-6.28-7.29-9.4Z"/>
      <path class="cls-11" d="M175.05,174.68c.43,6.23,.86,12.46,1.29,18.69-1.7,.12-3.39,.24-5.09,.37-.48-6.23-.97-12.45-1.46-18.67-2.18,.17-4.35,.35-6.52,.54-.13-1.49-.27-2.98-.4-4.47,6.14-.54,12.29-1,18.44-1.35,.09,1.49,.18,2.99,.26,4.48-2.18,.13-4.36,.26-6.53,.41Z"/>
      <path class="cls-11" d="M194.73,192.79c-1.54,.06-2.96-.14-4.26-.59-1.3-.45-2.42-1.16-3.37-2.12-.95-.96-1.71-2.18-2.29-3.65-.58-1.47-.92-3.19-1.03-5.16-.11-1.97,.05-3.72,.47-5.24,.42-1.52,1.07-2.81,1.95-3.87,.87-1.05,1.96-1.87,3.26-2.44,1.3-.57,2.75-.89,4.36-.94,1.6-.06,3.08,.15,4.42,.62,1.34,.47,2.49,1.2,3.44,2.19,.95,.99,1.69,2.22,2.23,3.71,.54,1.49,.83,3.21,.86,5.19,.04,1.97-.18,3.72-.64,5.22-.47,1.51-1.14,2.78-2.01,3.81-.88,1.03-1.94,1.82-3.2,2.37-1.26,.55-2.66,.85-4.2,.91Zm-.17-4.49c1.55-.06,2.74-.6,3.58-1.62,.84-1.02,1.23-2.47,1.18-4.33-.03-1.15-.07-2.31-.1-3.46-.05-1.86-.54-3.28-1.46-4.25-.92-.97-2.18-1.43-3.77-1.37-1.59,.06-2.81,.61-3.66,1.65-.84,1.04-1.22,2.49-1.13,4.35,.05,1.15,.11,2.3,.16,3.46,.09,1.86,.59,3.27,1.5,4.23,.91,.96,2.14,1.41,3.7,1.35Z"/>
      <path class="cls-11" d="M208.97,168.81c3.94-.05,7.88-.06,11.83-.03,2.02,.01,3.6,.58,4.7,1.68,1.11,1.1,1.64,2.56,1.61,4.35-.02,.89-.15,1.64-.4,2.26-.25,.62-.58,1.12-.99,1.51-.41,.39-.88,.68-1.42,.86-.54,.18-1.12,.28-1.73,.3,0,.07,0,.13,0,.2,.57,0,1.17,.11,1.79,.32,.63,.21,1.2,.53,1.71,.97,.52,.44,.95,1.01,1.29,1.7,.34,.7,.5,1.54,.48,2.54-.02,.91-.19,1.77-.5,2.57-.32,.81-.75,1.5-1.3,2.09-.55,.59-1.19,1.05-1.94,1.39-.74,.33-1.55,.5-2.42,.49-4.14-.04-8.28-.03-12.42,.02-.1-7.74-.2-15.48-.3-23.22Zm5.34,9.47c1.73,0,3.46,0,5.19,0,.69,0,1.22-.18,1.62-.55,.39-.37,.59-.89,.6-1.56,0-.33,0-.67,0-1,0-.67-.19-1.19-.58-1.57-.39-.38-.93-.57-1.63-.58-1.74,0-3.49,0-5.23,0,0,1.75,.02,3.5,.02,5.26Zm.04,9.45c1.97,0,3.94,0,5.92,0,.68,0,1.21-.18,1.61-.54,.4-.36,.6-.88,.61-1.54,0-.38,0-.75,.01-1.13,0-.67-.19-1.18-.58-1.55-.39-.37-.93-.56-1.61-.56-1.99-.01-3.98-.01-5.97,0,0,1.77,.01,3.55,.02,5.32Z"/>
      <path class="cls-11" d="M231.65,192.18c.2-7.74,.4-15.48,.59-23.22,5.52,.14,11.05,.36,16.57,.65-.08,1.5-.16,2.99-.24,4.49-3.73-.2-7.45-.36-11.18-.49-.05,1.57-.11,3.15-.16,4.72,3.17,.11,6.34,.24,9.51,.4-.07,1.49-.15,2.99-.22,4.48-3.15-.16-6.29-.29-9.44-.4-.06,1.67-.11,3.35-.17,5.02,3.64,.13,7.28,.28,10.92,.48-.08,1.5-.16,2.99-.24,4.49-5.31-.28-10.62-.49-15.93-.63Z"/>
      <path class="cls-11" d="M257.1,193.39c-1.7-.12-3.4-.23-5.09-.33,.47-7.73,.93-15.45,1.4-23.18,3.85,.23,7.69,.5,11.53,.81,1.12,.09,2.11,.35,2.99,.78,.87,.43,1.6,1,2.18,1.71,.58,.71,1,1.53,1.26,2.47,.26,.94,.34,1.96,.24,3.06-.14,1.57-.63,2.9-1.45,4.01-.82,1.11-1.98,1.86-3.48,2.27,1.3,3.16,2.57,6.32,3.82,9.49-1.89-.17-3.77-.34-5.66-.5-1.13-2.94-2.28-5.88-3.45-8.82-1.23-.09-2.47-.18-3.71-.27-.2,2.83-.39,5.66-.59,8.5Zm6.36-12.34c.78,.06,1.4-.08,1.88-.43,.48-.35,.75-.9,.81-1.65,.04-.49,.08-.97,.12-1.46,.06-.75-.12-1.34-.53-1.76-.42-.42-1.02-.67-1.8-.73-1.84-.15-3.69-.28-5.53-.41-.14,2.01-.28,4.03-.42,6.04,1.83,.13,3.65,.26,5.48,.41Z"/>
      <path class="cls-11" d="M274.58,194.87c.77-7.7,1.53-15.41,2.29-23.11,5.37,.53,10.73,1.14,16.09,1.82-.19,1.49-.37,2.97-.56,4.46-3.57-.45-7.15-.87-10.72-1.26-.17,1.57-.34,3.13-.51,4.7,3.02,.33,6.05,.68,9.07,1.05-.18,1.49-.37,2.97-.55,4.46-3-.37-6-.72-9-1.04-.34,3.15-.68,6.31-1.02,9.46-1.69-.18-3.39-.36-5.08-.53Z"/>
      <path class="cls-11" d="M294.13,197.15c1.03-7.67,2.05-15.35,3.07-23.02,5.49,.73,10.98,1.54,16.45,2.43-.24,1.48-.48,2.96-.71,4.43-3.7-.6-7.4-1.16-11.1-1.69-.22,1.56-.44,3.12-.67,4.68,3.15,.45,6.3,.92,9.45,1.42-.23,1.48-.47,2.96-.7,4.43-3.12-.5-6.25-.97-9.38-1.41-.24,1.66-.47,3.32-.71,4.97,3.62,.52,7.23,1.07,10.84,1.65-.24,1.48-.48,2.96-.72,4.43-5.27-.85-10.54-1.63-15.83-2.34Z"/>
      <path class="cls-11" d="M321.78,201.92c-2.03-.37-3.7-1.02-5-1.96-1.3-.94-2.36-2.03-3.18-3.3,1.3-.92,2.6-1.84,3.92-2.75,1.29,2.01,3.08,3.22,5.4,3.64,1.25,.23,2.22,.15,2.91-.23,.7-.38,1.12-.98,1.28-1.81,.12-.63,.04-1.19-.24-1.67-.28-.49-.96-.91-2.03-1.27-.76-.24-1.52-.48-2.27-.72-2.44-.76-4.14-1.81-5.11-3.17-.97-1.36-1.29-3-.97-4.93,.17-1.03,.54-1.94,1.09-2.72,.55-.78,1.27-1.42,2.15-1.9,.87-.48,1.9-.79,3.08-.93,1.18-.14,2.48-.08,3.91,.18,1.82,.33,3.37,.91,4.64,1.72,1.27,.81,2.3,1.84,3.07,3.08-1.37,.88-2.74,1.77-4.1,2.66-.45-.73-1.04-1.38-1.77-1.93-.73-.55-1.72-.94-2.95-1.17-1.16-.21-2.07-.17-2.71,.11-.64,.29-1.02,.78-1.14,1.47-.14,.78-.02,1.38,.37,1.8,.38,.43,1.06,.8,2.03,1.14,.76,.26,1.52,.53,2.28,.79,2.38,.83,4.05,1.9,5.01,3.21,.96,1.31,1.24,2.96,.84,4.94-.22,1.09-.62,2.05-1.2,2.89-.58,.84-1.32,1.5-2.21,2.01-.89,.51-1.94,.83-3.13,.98-1.19,.15-2.51,.09-3.95-.18Z"/>
      <path class="cls-11" d="M347.96,187.72c-1.36,6.1-2.71,12.19-4.07,18.28-1.67-.37-3.35-.74-5.02-1.1,1.3-6.11,2.61-12.21,3.91-18.32-2.15-.46-4.3-.91-6.45-1.34,.3-1.47,.59-2.94,.89-4.4,6.08,1.23,12.15,2.55,18.2,3.97-.34,1.46-.68,2.92-1.02,4.37-2.14-.5-4.29-.99-6.43-1.47Z"/>
    </g>
    <path class="cls-10" d="M116.84,148.86c-.98,1.6-1.9,3.22-2.75,4.85-2.04,.33-4.05,.76-6.04,1.26,1.61,1.05,3.16,2.16,4.62,3.31-.22,1.77-.41,3.55-.57,5.32,1.51-.95,3.09-1.84,4.74-2.67,1.65,.83,3.23,1.72,4.74,2.67-.17-1.77-.36-3.55-.57-5.32,1.47-1.15,3.01-2.26,4.62-3.31-1.98-.51-4-.93-6.04-1.27-.85-1.63-1.77-3.25-2.75-4.85Z"/>
    <path class="cls-10" d="M153.84,144.86c-.98,1.6-1.9,3.22-2.75,4.85-2.04,.33-4.05,.76-6.04,1.26,1.61,1.05,3.16,2.16,4.62,3.31-.22,1.77-.41,3.55-.57,5.32,1.51-.95,3.09-1.84,4.74-2.67,1.65,.83,3.23,1.72,4.74,2.67-.17-1.78-.36-3.55-.57-5.32,1.47-1.15,3.01-2.26,4.62-3.31-1.98-.51-4-.93-6.04-1.27-.85-1.63-1.77-3.25-2.75-4.85Z"/>
    <path class="cls-10" d="M269.84,144.86c-.98,1.6-1.9,3.22-2.75,4.85-2.04,.33-4.05,.76-6.04,1.26,1.61,1.05,3.16,2.16,4.62,3.31-.22,1.77-.41,3.55-.57,5.32,1.51-.95,3.09-1.84,4.74-2.67,1.65,.83,3.23,1.72,4.74,2.67-.17-1.78-.36-3.55-.57-5.32,1.47-1.15,3.01-2.26,4.62-3.31-1.98-.51-4-.93-6.04-1.27-.85-1.63-1.77-3.25-2.75-4.85Z"/>
    <path class="cls-10" d="M306.84,148.86c-.98,1.6-1.9,3.22-2.75,4.85-2.04,.33-4.05,.76-6.04,1.26,1.61,1.05,3.16,2.16,4.62,3.31-.22,1.77-.41,3.55-.57,5.32,1.51-.95,3.09-1.84,4.74-2.67,1.65,.83,3.23,1.72,4.74,2.67-.17-1.78-.36-3.55-.57-5.32,1.47-1.15,3.01-2.26,4.62-3.31-1.98-.51-4-.93-6.04-1.27-.85-1.63-1.77-3.25-2.75-4.85Z"/>
  </g>
</svg>